<svg width="25" height="24" viewBox="0 0 25 24" fill="none" xmlns="http://www.w3.org/2000/svg">
<path d="M16.1765 13.525L15.0794 12.425C15.5115 11.2417 15.2871 10.2583 14.4061 9.475C13.5251 8.69167 12.5693 8.49167 11.5387 8.875L10.4416 7.775C10.7242 7.59167 11.04 7.45833 11.3891 7.375C11.7382 7.29167 12.0956 7.25 12.4613 7.25C13.6415 7.25 14.643 7.6625 15.4658 8.4875C16.2887 9.3125 16.7001 10.3167 16.7001 11.5C16.7001 11.8667 16.6544 12.2292 16.5629 12.5875C16.4715 12.9458 16.3427 13.2583 16.1765 13.525ZM19.393 16.75L18.3956 15.75C19.2101 15.15 19.9207 14.4792 20.5275 13.7375C21.1342 12.9958 21.5789 12.25 21.8614 11.5C21.0303 9.65 19.7836 8.1875 18.1213 7.1125C16.459 6.0375 14.6555 5.5 12.7106 5.5C12.0125 5.5 11.2977 5.56667 10.5663 5.7C9.83487 5.83333 9.26138 5.99167 8.84581 6.175L7.69884 5C8.28064 4.73333 9.02451 4.5 9.93045 4.3C10.8364 4.1 11.7216 4 12.5859 4C14.963 4 17.1364 4.67917 19.1062 6.0375C21.076 7.39583 22.518 9.21667 23.4323 11.5C23.0001 12.5667 22.4432 13.5417 21.7617 14.425C21.0802 15.3083 20.2906 16.0833 19.393 16.75ZM20.8391 22.4L16.6502 18.275C16.0684 18.5083 15.4118 18.6875 14.6804 18.8125C13.949 18.9375 13.2093 19 12.4613 19C10.0343 19 7.83182 18.3208 5.85371 16.9625C3.8756 15.6042 2.42111 13.7833 1.49023 11.5C1.82269 10.6333 2.28397 9.7875 2.87408 8.9625C3.46419 8.1375 4.18312 7.35 5.03089 6.6L1.88918 3.45L2.93642 2.375L21.8116 21.3L20.8391 22.4ZM6.05319 7.65C5.43814 8.1 4.84388 8.69167 4.27039 9.425C3.69691 10.1583 3.28549 10.85 3.03615 11.5C3.88391 13.35 5.15971 14.8125 6.86355 15.8875C8.56738 16.9625 10.4998 17.5 12.6607 17.5C13.2093 17.5 13.7495 17.4667 14.2815 17.4C14.8134 17.3333 15.2123 17.2333 15.4783 17.1L13.8825 15.5C13.6997 15.5833 13.4753 15.6458 13.2093 15.6875C12.9433 15.7292 12.694 15.75 12.4613 15.75C11.2977 15.75 10.3003 15.3417 9.46917 14.525C8.63803 13.7083 8.22246 12.7 8.22246 11.5C8.22246 11.25 8.24324 11 8.28479 10.75C8.32635 10.5 8.38869 10.275 8.4718 10.075L6.05319 7.65Z" fill="black"/>
</svg>
